<?xml version="1.0" encoding="utf-8"?>
<!-- Generator: Adobe Illustrator 19.1.0, SVG Export Plug-In . SVG Version: 6.00 Build 0)  -->
<svg version="1.1" id="Layer_1" xmlns="http://www.w3.org/2000/svg" xmlns:xlink="http://www.w3.org/1999/xlink" x="0px" y="0px"
	 viewBox="-668.6 245.2 89 85" style="enable-background:new -668.6 245.2 89 85;" xml:space="preserve">
<g>
	<polygon points="-581.6,265.2 -619.6,246.2 -623.6,245.2 -624.6,245.2 -628.6,246.2 -666.6,265.2 -668.6,266.2 -668.6,269.2 
		-668.6,330.2 -666.6,329.2 -666.6,268.2 -628.6,249.2 -624.6,248.2 -623.6,248.2 -619.6,249.2 -581.6,268.2 -581.6,329.2 
		-579.6,330.2 -579.6,269.2 -579.6,266.2 	"/>
	<g>
		<path d="M-664.6,270.2v60l40-20v-60L-664.6,270.2z M-660.6,287.2l18-9v1l-18,9V287.2z M-660.6,292.2l18-9v4l-18,9V292.2z
			 M-632.6,299.2l-28,14v-1l28-14V299.2z M-628.6,295.2l-32,16v-1l32-16V295.2z M-628.6,293.2l-32,16v-1l32-16V293.2z M-628.6,291.2
			l-32,16v-1l32-16V291.2z M-628.6,289.2l-32,16v-1l32-16V289.2z M-628.6,287.2l-32,16v-1l32-16V287.2z M-628.6,285.2l-32,16v-1
			l32-16V285.2z M-628.6,283.2l-32,16v-1l32-16V283.2z M-628.6,270.2l-32,16v-1l32-16V270.2z M-628.6,268.2l-32,16v-1l32-16V268.2z
			 M-628.6,266.2l-32,16v-1l32-16V266.2z M-628.6,264.2l-32,16v-1l32-16V264.2z M-628.6,262.2l-32,16v-1l32-16V262.2z M-628.6,260.2
			l-32,16v-1l32-16V260.2z M-628.6,258.2l-32,16v-1l32-16V258.2z"/>
	</g>
	<g>
		<path d="M-623.6,250.2v60l40,20v-60L-623.6,250.2z M-619.6,286.2l18,9v4l-18-9V286.2z M-607.6,306.2l-12-6v-4l12,6V306.2z
			 M-591.6,309.2l-28-14v-4l28,14V309.2z M-587.6,299.2l-32-16v-26l32,16V299.2z"/>
	</g>
</g>
</svg>
