<?xml version="1.0" encoding="utf-8"?>
<!-- Generator: Adobe Illustrator 19.1.0, SVG Export Plug-In . SVG Version: 6.00 Build 0)  -->
<svg version="1.1" id="Layer_1" xmlns="http://www.w3.org/2000/svg" xmlns:xlink="http://www.w3.org/1999/xlink" x="0px" y="0px"
	 viewBox="0 0 124 128.2" style="enable-background:new 0 0 124 128.2;" xml:space="preserve">
<style type="text/css">
	.st0{fill:#EAEAEA;}
	.st1{fill:#EAEAEA;stroke:#FFFFFF;stroke-miterlimit:10;}
</style>
<g>
	<path class="st0" d="M123.5,110.6c-5.6-14.8-15.1-18.2-22.8-19.6c-6.4-1.1-14.3-3.5-17.2-5.1c-0.1-1.3-0.1-3.9,0.1-8.1
		c0.2-0.2,0.3-0.3,0.5-0.5l-0.1-0.1c3.8-5.1,5.6-9.8,6.4-13c2.4-1.7,5-5.1,6.5-11.5c0.9-3.8,1.5-8.5-1.2-11.9
		c-0.1-0.1-0.1-0.2-0.2-0.2C98,16.7,82.8,4.7,73.9,1.6l-0.1,0l-0.1,0c-3.3-1-6.4-1.5-9.3-1.5c0,0-0.1,0-0.1,0c0,0,0,0-0.1,0
		C64.1,0,64,0,64,0c-0.7,0-1.4,0-2,0.1C61.3,0,60.6,0,59.9,0c-3,0-6.3,0.5-9.6,1.5l-0.1,0l-0.1,0c-9,3.1-24.2,15.1-21.8,38.9
		c-0.1,0.1-0.1,0.2-0.2,0.2c-2.7,3.4-2,8.1-1.2,11.9c1.5,6.5,4.1,9.8,6.5,11.5c0.8,3.2,2.6,7.9,6.3,12.9v0c0,0,0,0,0,0.1
		c0.2,0.3,0.4,0.6,0.6,0.8c0.2,4.1,0.2,6.6,0.1,7.9c-2.8,1.5-10.8,3.9-17.1,5.1c-7.6,1.4-17.1,4.8-22.8,19.6
		c-0.9,2.5-0.6,5.2,0.9,7.5c5.8,8.3,36.1,10.1,60.6,10.1s54.8-1.8,60.6-10.1C124.1,115.8,124.5,113.1,123.5,110.6z M38.8,59.8
		c0,0-0.1,0-0.2,0c-0.8,0-3.9-0.5-5.8-8.5C31.4,45,32.9,44,34.1,44c0.5,0,0.9,0.2,0.9,0.2c0-0.1,0-0.2,0-0.2l0.3,0.2l2.5,7.9
		c0,0-1.7-22,10.2-23.7c0,0,12.6,13,28.3,15.8c0,0-3.4-6.2-6.2-11.9c0,0,9,10.2,17,11.9c0,0,1.2-1.5,2.5-4.1
		c-0.1,1.3-0.3,2.7-0.6,4.1c0,0,0.4-0.2,0.9-0.2c1.1,0,2.6,1,1.2,7.2c-1.9,8-5,8.5-5.8,8.5c-0.1,0-0.2,0-0.2,0s-0.4,7.5-7.3,15.7
		c0,0.1,0,0.1,0,0.2c-5.4,5.5-10.9,8.2-16.4,7.9c-6.9-0.3-12.3-5-15-7.8c0,0,0-0.1,0-0.1C39.2,67.4,38.8,59.8,38.8,59.8z M62,103.2
		c-9.6,0-18.2-3.7-24.2-9.6c4.1-1.4,7.6-3,8.2-4.6c0.4-1,0.5-2.9,0.6-5.1c3.6,2.7,8.5,5.3,14.4,5.6c0.3,0,0.6,0,1,0
		c5.3,0,10.5-2,15.4-5.8c0,2.2,0.2,4.2,0.6,5.2c0.6,1.6,4.1,3.2,8.2,4.6C80.2,99.5,71.6,103.2,62,103.2z"/>
	<rect x="52.8" y="68.5" class="st0" width="19.9" height="1.5"/>
	<circle class="st1" cx="49.4" cy="52.4" r="3.8"/>
	<circle class="st1" cx="75.8" cy="52.4" r="3.8"/>
	<circle class="st0" cx="49.4" cy="52.4" r="2.4"/>
	<circle class="st0" cx="75.8" cy="52.4" r="2.4"/>
</g>
</svg>
