<?xml version="1.0" encoding="utf-8"?>
<!-- Generator: Adobe Illustrator 19.1.0, SVG Export Plug-In . SVG Version: 6.00 Build 0)  -->
<svg version="1.1" id="Layer_1" xmlns="http://www.w3.org/2000/svg" xmlns:xlink="http://www.w3.org/1999/xlink" x="0px" y="0px"
	 viewBox="-680 228.4 124 120.5" style="enable-background:new -680 228.4 124 120.5;" xml:space="preserve">
<style type="text/css">
	.st0{fill:#0D8943;}
</style>
<g>
	<circle class="st0" cx="-617.1" cy="247.1" r="18.7"/>
	<path class="st0" d="M-557.5,279.8c-4.2-25.4-23.8-37-41.4-37.6c-3.3,7.8-4.8,31.1,9.7,47.7c17.4,19.8-41.3,58.6,9.3,57.8
		C-561.5,347.4-552,313.4-557.5,279.8z"/>
	<path class="st0" d="M-566.6,336.2c0.2,7.5-9.7,12.2-22.6,12.7c-7.6,0.3-51.9-1.8-61.2-12c-4.7-5.2-0.5-9.1,1.7-10.7
		c7.5-5.5,45.5-2.1,58.4-2.7S-566.8,328.6-566.6,336.2z"/>
	<path class="st0" d="M-609.4,283.9c-2.9,3.3-6.3,5.4-9.6,2.4l0,0c-3.3-2.9-3.6-8-0.6-11.3l16.4-18.4c2.9-3.3,8-3.6,11.3-0.6l0,0
		c3.3,2.9,3.6,8,0.6,11.3L-609.4,283.9z"/>
	<path class="st0" d="M-664.1,270.1c2.7-0.3,5.2-1.3,7.3-2.8c-0.5-0.8-1.4-1.4-2.9-1.6c-3.1-0.2-4.9-1.3-4.2-2.1
		c-0.9-1.1,1.8-2.2,11-0.8c1.5-2.5,2.2-5.5,1.9-8.7c0-0.1,0-0.1,0-0.2l-28.9,2.9c0,0.1,0,0.1,0,0.2
		C-679.2,265.1-672.1,270.9-664.1,270.1z"/>
	<path class="st0" d="M-611.4,284c-1.2,3-4.5,4.5-7.5,3.3l-28-15.7c-2.7,0.6-23.5,3.5-22.2-0.7c0.3-1.1,2.6,0.1,4.8-0.2
		c9.1-1.1,8.3-2.6,8.3-2.6c-0.4-1-1.3-2.6-3.6-2.8c-6.5-0.5-7.5-4.7,9.8-1.6c8.6,1.6,35.1,12.8,35.1,12.8
		C-611.7,277.7-610.2,281-611.4,284L-611.4,284z"/>
</g>
</svg>
