<?xml version="1.0" encoding="utf-8"?>
<!-- Generator: Adobe Illustrator 19.1.0, SVG Export Plug-In . SVG Version: 6.00 Build 0)  -->
<svg version="1.1" id="Layer_1" xmlns="http://www.w3.org/2000/svg" xmlns:xlink="http://www.w3.org/1999/xlink" x="0px" y="0px"
	 viewBox="0 0 113.2 120.5" style="enable-background:new 0 0 113.2 120.5;" xml:space="preserve">
<style type="text/css">
	.st0{fill:#0D8A43;}
</style>
<g>
	<circle class="st0" cx="52" cy="18.7" r="18.7"/>
	<path class="st0" d="M111.7,51.4c-4.2-25.4-23.8-37-41.4-37.6c-3.3,7.8-4.8,31.1,9.7,47.7c17.4,19.8-41.3,58.6,9.3,57.8
		C107.7,119,117.2,85,111.7,51.4z"/>
	<path class="st0" d="M102.6,107.8c0.2,7.5-9.7,12.2-22.6,12.7c-7.6,0.3-51.9-1.8-61.2-12c-4.7-5.2-0.5-9.1,1.7-10.7
		c7.5-5.5,45.5-2.1,58.4-2.7C91.7,94.5,102.4,100.2,102.6,107.8z"/>
	<path class="st0" d="M59.7,55.5c-2.9,3.3-6.3,5.4-9.6,2.4l0,0c-3.3-2.9-3.6-8-0.6-11.3L66,28.3c2.9-3.3,8-3.6,11.3-0.6l0,0
		c3.3,2.9,3.6,8,0.6,11.3L59.7,55.5z"/>
	<path class="st0" d="M57.8,55.6c-1.2,3-4.5,4.5-7.5,3.3l-28-15.7c-2.7,0.6-23.5,3.5-22.2-0.7c0.3-1.1,2.6,0.1,4.8-0.2
		c9.1-1.1,8.3-2.6,8.3-2.6c-0.4-1-1.3-2.6-3.6-2.8c-6.5-0.5-7.5-4.7,9.8-1.6c8.6,1.6,35.1,12.8,35.1,12.8
		C57.5,49.3,59,52.6,57.8,55.6L57.8,55.6z"/>
</g>
</svg>
