<?xml version="1.0" encoding="utf-8"?>
<!-- Generator: Adobe Illustrator 19.1.0, SVG Export Plug-In . SVG Version: 6.00 Build 0)  -->
<svg version="1.1" id="Layer_1" xmlns="http://www.w3.org/2000/svg" xmlns:xlink="http://www.w3.org/1999/xlink" x="0px" y="0px"
	 viewBox="-749 357.6 100 87.4" style="enable-background:new -749 357.6 100 87.4;" xml:space="preserve">
<style type="text/css">
	.st0{fill:#FFFFFF;}
</style>
<g>
	<g>
		<path class="st0" d="M-678.4,357.6c-10.3,0-16.8,5-20.6,9.6c-3.8-4.5-10.3-9.6-20.6-9.6c-17.6,0-29.4,16.3-29.4,31.5
			c0,22.1,42.5,51.8,47.4,55.1c0.8,0.5,1.7,0.8,2.6,0.8s1.8-0.3,2.6-0.8c4.8-3.3,47.4-33,47.4-55.1
			C-649,373.9-660.8,357.6-678.4,357.6z M-699,434.7c-16.7-11.9-40.7-33.2-40.7-45.6c0-9.3,7-22.1,20-22.1
			c11.9,0,16.1,10.3,16.3,10.7c0.7,1.8,2.4,3,4.3,3l0,0c1.9,0,3.6-1.2,4.4-3c0.2-0.4,4.4-10.7,16.3-10.7c13.1,0,20,12.9,20,22.1
			C-658.3,401.4-682.3,422.8-699,434.7z"/>
		<path class="st0" d="M-693,390c-4.5,0-6,4-6,4s-1.5-4-6-4s-7.2,4.3-7.2,7.8c0,5.9,13.2,15,13.2,15s13.2-9,13.2-15
			C-685.8,394.2-688.5,390-693,390z"/>
	</g>
</g>
</svg>
