<?xml version="1.0" encoding="utf-8"?>
<!-- Generator: Adobe Illustrator 19.1.0, SVG Export Plug-In . SVG Version: 6.00 Build 0)  -->
<svg version="1.1" id="Layer_1" xmlns="http://www.w3.org/2000/svg" xmlns:xlink="http://www.w3.org/1999/xlink" x="0px" y="0px"
	 viewBox="-725.2 180.3 218.5 218.5" style="enable-background:new -725.2 180.3 218.5 218.5;" xml:space="preserve">
<style type="text/css">
	.st0{fill:#FFFFFF;}
	.st1{fill:#D13427;}
	.st2{fill:#D13427;stroke:#FFFFFF;stroke-miterlimit:10;}
	.st3{fill:none;stroke:#FFFFFF;stroke-width:4;stroke-miterlimit:10;}
</style>
<path class="st0" d="M-558.1,333.3c-5.3-13.9-14.2-17.2-21.4-18.5c-6-1.1-13.5-3.3-16.1-4.8c-0.1-1.2-0.1-3.7,0.1-7.7
	c0.1-0.2,0.3-0.3,0.4-0.5l-0.1-0.1c3.5-4.8,5.2-9.2,6-12.3c2.3-1.6,4.7-4.8,6.1-10.9c0.8-3.5,1.4-8-1.1-11.2
	c-0.1-0.1-0.1-0.1-0.2-0.2c2.3-22.4-12.1-33.7-20.5-36.6l-0.1,0l-0.1,0c-3.1-0.9-6-1.4-8.8-1.4c0,0-0.1,0-0.1,0c0,0,0,0-0.1,0
	c0,0-0.1,0-0.2,0c-0.7,0-1.3,0-1.9,0.1c-0.6-0.1-1.3-0.1-1.9-0.1c-2.8,0-5.9,0.5-9.1,1.4l-0.1,0l-0.1,0
	c-8.4,2.9-22.8,14.2-20.5,36.6c-0.1,0.1-0.1,0.1-0.2,0.2c-2.5,3.2-1.9,7.7-1.1,11.2c1.4,6.1,3.8,9.2,6.1,10.9
	c0.8,3,2.4,7.4,5.9,12.1v0c0,0,0,0,0,0.1c0.2,0.3,0.3,0.5,0.6,0.8c0.2,3.8,0.2,6.2,0.1,7.5c-2.7,1.4-10.1,3.7-16.1,4.8
	c-7.2,1.3-16.1,4.5-21.4,18.5c-0.9,2.4-0.6,4.9,0.9,7c5.4,7.8,34,9.5,57,9.5c23,0,51.6-1.6,57-9.5
	C-557.5,338.2-557.2,335.7-558.1,333.3z M-637.8,285.5c0,0-0.1,0-0.2,0c-0.7,0-3.7-0.5-5.5-8c-1.4-5.9,0.1-6.8,1.1-6.8
	c0.5,0,0.9,0.2,0.9,0.2c0-0.1,0-0.1,0-0.2l0.2,0.2l2.4,7.4c0,0-1.6-20.7,9.6-22.3c0,0,11.9,12.2,26.6,14.9c0,0-3.2-5.9-5.8-11.2
	c0,0,8.5,9.6,16,11.2c0,0,1.1-1.4,2.4-3.8c-0.1,1.3-0.3,2.5-0.5,3.9c0,0,0.4-0.2,0.9-0.2c1.1,0,2.5,0.9,1.1,6.8
	c-1.8,7.6-4.7,8-5.5,8c-0.1,0-0.2,0-0.2,0s-0.4,7.1-6.9,14.7c0,0.1,0,0.1,0,0.2c-5.1,5.2-10.3,7.7-15.4,7.5
	c-6.5-0.3-11.6-4.7-14.1-7.3c0,0,0-0.1,0-0.1C-637.4,292.7-637.8,285.5-637.8,285.5z M-616,326.3c-9,0-17.1-3.5-22.8-9.1
	c3.9-1.3,7.2-2.9,7.7-4.4c0.4-1,0.5-2.8,0.5-4.8c3.4,2.6,8,5,13.5,5.3c0.3,0,0.6,0,0.9,0c5,0,9.8-1.8,14.5-5.4
	c0,2.1,0.2,3.9,0.5,4.9c0.6,1.5,3.8,3,7.7,4.4C-598.9,322.8-607,326.3-616,326.3z"/>
<rect x="-624.7" y="297.1" class="st1" width="18.7" height="1.4"/>
<circle class="st2" cx="-627.9" cy="282" r="3.5"/>
<circle class="st2" cx="-603" cy="282" r="3.5"/>
<circle class="st0" cx="-627.9" cy="282" r="2.2"/>
<circle class="st0" cx="-603" cy="282" r="2.2"/>
<circle class="st3" cx="-616" cy="289.5" r="107.2"/>
</svg>
