<?xml version="1.0" encoding="utf-8"?>
<!-- Generator: Adobe Illustrator 19.1.0, SVG Export Plug-In . SVG Version: 6.00 Build 0)  -->
<svg version="1.2" baseProfile="tiny" id="Layer_1" xmlns="http://www.w3.org/2000/svg" xmlns:xlink="http://www.w3.org/1999/xlink"
	 x="0px" y="0px" viewBox="0 0 21.4 17.4" xml:space="preserve">
<text transform="matrix(1 0 0 1 -1.029968e-04 5.1301)" fill="#333333" font-family="'Raleway-Medium'" font-size="6px">K</text>
<text transform="matrix(1 0 0 1 3.7738 5.1301)" fill="#333333" font-family="'Raleway-Medium'" font-size="6px">o</text>
<text transform="matrix(1 0 0 1 7.4281 5.1301)" fill="#333333" font-family="'Raleway-Medium'" font-size="6px">l</text>
<text transform="matrix(1 0 0 1 9.204 5.1301)" fill="#333333" font-family="'Raleway-Medium'" font-size="6px">k</text>
<text transform="matrix(1 0 0 1 12.4979 5.1301)" fill="#333333" font-family="'Raleway-Medium'" font-size="6px">a</text>
<text transform="matrix(1 0 0 1 15.8573 5.1301)" fill="#333333" font-family="'Raleway-Medium'" font-size="6px">t</text>
<text transform="matrix(1 0 0 1 18.0292 5.1301)" fill="#333333" font-family="'Raleway-Medium'" font-size="6px">a</text>
<g>
	<path fill="#E83E3D" d="M10.7,9.8c-1.6,0-2.8,1.3-2.9,2.9c0,0.6,0.2,1.1,0.4,1.5l2.2,3.1c0.1,0.1,0.1,0.2,0.2,0.2l0,0
		c0.1,0,0.2-0.1,0.2-0.2l2.2-3c0.3-0.4,0.4-1,0.5-1.5C13.6,11.1,12.3,9.8,10.7,9.8z"/>
	<circle fill="#FFFFFF" cx="10.7" cy="12.6" r="1.1"/>
</g>
</svg>
