<?xml version="1.0" encoding="utf-8"?>
<!-- Generator: Adobe Illustrator 19.1.0, SVG Export Plug-In . SVG Version: 6.00 Build 0)  -->
<svg version="1.1" id="Layer_1" xmlns="http://www.w3.org/2000/svg" xmlns:xlink="http://www.w3.org/1999/xlink" x="0px" y="0px"
	 viewBox="0 0 269 167.9" style="enable-background:new 0 0 269 167.9;" xml:space="preserve">
<style type="text/css">
	.st0{fill:#FFFFFF;}
</style>
<g>
	<path class="st0" d="M263.8,31.2c4.5,0,6.5-2.2,4.4-4.2s-4.7-5.8-1.7-5.2s1.2-6.7,0-12s-16.2-10.8-16-9.5s-1.8,4-1.8,5.8s-6,0-6,0
		s0,7.8-4,8c-3.8,0.2-5,0-5,0s3.5,6.5,0,8.7s-2.5,3.2-2.5,3.2s1.2,7.5-2.2,7.3s-0.9,2.8-3.5,4c-5.3,2.3-4-3.8-4-3.8
		s-3.4,6.8-5.8,4.5c-5.8-5.6-4.2,6-10.5,5.8s-4.5-7.2-4.5-7.2s-4.8,3.3-4.8,1c0.2-6.9-3.5-10.5-4-9s1.8,2.8-7.8-1.2
		s-7.5,2.5-7.5,5.2s-4.2,3.2-4.2,4.2s-3.2,4-6.5,3.5s-4.2,0.8-7,3.2s-5,0.5-5,0.5s-2.5,7.5-6.5,1s-5.8-5.2-7.5-2s-5.5,1.2-5.5,2.5
		s-6.2,2.8-6.2,2.8s-4.3,2-3.5-2.8s-1-6.5-2-6.8s-6.8,2.8-6.8,2.8s-1.5-0.8-2.8-4.8c-1.9-6.1-4,0.5-6.2,2s-6.5,0.2-13.2,0
		s-7.5-6-9.5-3.5s1.5,3,0,5.2s-1.8,1.8-2,3.2s2.2,2.2,2,4s-3,1.8-3.8,3s1.8,2,1.2,3.2s-2.2,1.2-2.2,1.2s-2.9,0.3-2.8,2.8
		c0.3,4.7-1.8,6.5-1.8,6.5c-11.5,5-7.5-4.5-12-4.5s-6,0-6,0l-4,1.8c-3.5,0-1.2,5-2.5,3.8S48,67.9,48,67.9h-8.5c0,0-6.8-3-19.2-3
		s-3.8,0.2-5.5-0.5s1.2-2-0.8-3.2s-3.8,0.5-5,3.2s3.5,2.8,2,5.5s-3.5,3.5-4.2,6.2s7,3,9.8,2.5s3.5,2.8,6.5,4.6
		c3,1.8,5.5,3.7,7.5,8.9s-2.2,5.8-3.5,7s-3.2,0-4.8,1.8c-0.9,1-3.2,4.2-5,6.7l0,0c0,0-17.1,17.8-17.1,20.5c0,2.7,0,2.7,0,2.7
		s-3.5,19.8,17.8,25.2c21.3,5.3,14,3.3,16,8c2,4.7,20.8-0.5,26.8,2.6c5.5,2.8,17.2,0.4,19.1,0c0.1,0,0.2,0,0.3-0.1c1-2.5,4-7,4.8-8
		s5.5-6.8,5.5-6.8s-1-5.8,2-13.2s4.2-6.2,13-8.5s2.2-3.8,4.2-7.5s3.2,2.2,7,7s0,0,8.5,0.2s5-1,9.5-2.2s8.2,1,10.2-0.2s9-3.8,9.5,2.2
		s0.2,3.2-0.2,7.5s-3,2.2-5.6,3.2c-2.6,1,10.6,3.5,14.3,3.2s0.3-1,1.8-4.2s3-1,11,2.2s9.2,0.2,8,2s1.5,1,4.5,4.8s2.5-1.5,6.2-4.5
		s0-3.8-0.5-7.8s-1.2-3.8-2.5-7s-1.8-4.5,3-4.8s1.8,1.5,4.2,1.5s3.2-0.5,5.5,0s6.5,7,6.5,8s1.5-1.5,6-1.8s8.5,6.2,8.5,6.2
		s5.5-0.2,6-3.8s0,0-5.5-6c3.8-4-6.2-10.5-6.2-10.5c-19.2-9.5,3-11.2-3-14.4c-6-3.1-5.2,1.6-7.8-0.6s-5.5,2.2-5.5,0s-5.2-4.8-6-6.2
		s-7.2-1.5-8-3.2s-3.8,0-3.8,0s2-3.5,3-4.2s0.8-7,0.8-7s5-0.2,6-0.2s-1.2-4.2-1.2-4.2s2.5-2.5,6.5,3s6.8,1.2,6.8,1.2s2.8-9.5,11-9.2
		s6.8-3.5,7-5.8s3,0,3,0s-1.8-7.2,1-4s10,2.8,10.5,3s0.8-3.2,2.8-2s2.5-5,2.5-5s-8.2-3.5-2.2-3.8s8.5,4.2,8.2,3.2s2-6.5,2-6.5
		s1.8,1.8,2.2,0.2s5.5-3,5.5-3s-9.7,2-2.2-2.8c7.5-4.8,5-10.5,5-10.5S260.3,31.2,263.8,31.2z"/>
</g>
</svg>
