<svg xmlns="http://www.w3.org/2000/svg" xmlns:xlink="http://www.w3.org/1999/xlink" version="1.1" id="Layer_3" x="0" y="0" viewBox="0 0 229.2 126.6" xml:space="preserve" enable-background="new 0 0 229.2 126.6">
  <style type="text/css">
    
									    
										.st20{fill:#D32027;}

									  
  </style>
  <circle class="st20" cx="180.7" cy="49.6" r="2"/>
  <circle class="st20" cx="176.7" cy="40.2" r="2"/>
  <circle class="st20" cx="164.9" cy="38.2" r="2"/>
  <circle class="st20" cx="166.9" cy="59.3" r="2"/>
  <circle class="st20" cx="156.4" cy="56.4" r="2"/>
  <circle class="st20" cx="158.4" cy="67.8" r="2"/>
  <circle class="st20" cx="139" cy="50.1" r="2"/>
  <circle class="st20" cx="131.2" cy="63.8" r="2"/>
  <circle class="st20" cx="170.3" cy="51" r="2"/>
  <circle class="st20" cx="147" cy="42.2" r="2"/>
  <circle class="st20" cx="116.3" cy="26.3" r="2"/>
  <circle class="st20" cx="118.3" cy="37" r="2"/>
  <circle class="st20" cx="139.8" cy="34.2" r="2"/>
  <circle class="st20" cx="119.4" cy="45.8" r="2"/>
  <circle class="st20" cx="119.4" cy="51.5" r="2"/>
  <circle class="st20" cx="141.8" cy="65.8" r="2"/>
  <circle class="st20" cx="119.4" cy="63" r="2"/>
  <circle class="st20" cx="119.4" cy="68.8" r="2"/>
  <circle class="st20" cx="150.2" cy="76" r="2"/>
  <circle class="st20" cx="128.4" cy="78" r="2"/>
  <circle class="st20" cx="155.9" cy="46.1" r="2"/>
  <circle class="st20" cx="137" cy="84.7" r="2"/>
  <circle class="st20" cx="135.8" cy="74.9" r="2"/>
  <circle class="st20" cx="2" cy="89.5" r="2"/>
  <circle class="st20" cx="6" cy="80.2" r="2"/>
  <circle class="st20" cx="17.8" cy="78.2" r="2"/>
  <circle class="st20" cx="15.8" cy="99.2" r="2"/>
  <circle class="st20" cx="26.2" cy="96.4" r="2"/>
  <circle class="st20" cx="24.2" cy="107.8" r="2"/>
  <circle class="st20" cx="43.7" cy="90.1" r="2"/>
  <circle class="st20" cx="51.5" cy="103.8" r="2"/>
  <circle class="st20" cx="12.4" cy="91" r="2"/>
  <circle class="st20" cx="35.6" cy="82.2" r="2"/>
  <circle class="st20" cx="66.4" cy="66.2" r="2"/>
  <circle class="st20" cx="64.4" cy="76.9" r="2"/>
  <circle class="st20" cx="42.9" cy="74.2" r="2"/>
  <circle class="st20" cx="63.3" cy="85.7" r="2"/>
  <circle class="st20" cx="63.3" cy="91.5" r="2"/>
  <circle class="st20" cx="40.9" cy="105.8" r="2"/>
  <circle class="st20" cx="63.3" cy="103" r="2"/>
  <circle class="st20" cx="63.3" cy="108.7" r="2"/>
  <circle class="st20" cx="32.5" cy="116" r="2"/>
  <circle class="st20" cx="54.3" cy="118" r="2"/>
  <circle class="st20" cx="26.8" cy="86.1" r="2"/>
  <circle class="st20" cx="45.7" cy="124.6" r="2"/>
  <circle class="st20" cx="46.9" cy="114.8" r="2"/>
  <circle class="st20" cx="36.2" cy="62.4" r="2"/>
  <circle class="st20" cx="40.2" cy="53" r="2"/>
  <circle class="st20" cx="51.9" cy="51" r="2"/>
  <circle class="st20" cx="49.9" cy="72.1" r="2"/>
  <circle class="st20" cx="60.4" cy="69.2" r="2"/>
  <circle class="st20" cx="58.4" cy="80.6" r="2"/>
  <circle class="st20" cx="77.9" cy="62.9" r="2"/>
  <circle class="st20" cx="85.7" cy="76.6" r="2"/>
  <circle class="st20" cx="46.6" cy="63.8" r="2"/>
  <circle class="st20" cx="69.8" cy="55" r="2"/>
  <circle class="st20" cx="100.5" cy="39" r="2"/>
  <circle class="st20" cx="98.5" cy="49.8" r="2"/>
  <circle class="st20" cx="77" cy="47" r="2"/>
  <circle class="st20" cx="97.5" cy="58.6" r="2"/>
  <circle class="st20" cx="97.5" cy="64.3" r="2"/>
  <circle class="st20" cx="75" cy="78.6" r="2"/>
  <circle class="st20" cx="97.5" cy="75.8" r="2"/>
  <circle class="st20" cx="97.5" cy="81.6" r="2"/>
  <circle class="st20" cx="66.7" cy="88.8" r="2"/>
  <circle class="st20" cx="88.5" cy="90.8" r="2"/>
  <circle class="st20" cx="60.9" cy="58.9" r="2"/>
  <circle class="st20" cx="79.9" cy="97.4" r="2"/>
  <circle class="st20" cx="81" cy="87.6" r="2"/>
  <circle class="st20" cx="164.9" cy="14.6" r="2"/>
  <circle class="st20" cx="173.2" cy="26.9" r="2"/>
  <circle class="st20" cx="189.1" cy="21.4" r="2"/>
  <circle class="st20" cx="187.1" cy="32.9" r="2"/>
  <circle class="st20" cx="206.6" cy="15.2" r="2"/>
  <circle class="st20" cx="214.4" cy="28.9" r="2"/>
  <circle class="st20" cx="175.2" cy="16" r="2"/>
  <circle class="st20" cx="227.2" cy="2" r="2"/>
  <circle class="st20" cx="226.1" cy="10.8" r="2"/>
  <circle class="st20" cx="226.1" cy="16.6" r="2"/>
  <circle class="st20" cx="203.7" cy="30.9" r="2"/>
  <circle class="st20" cx="195.4" cy="41" r="2"/>
  <circle class="st20" cx="77.9" cy="68.5" r="2"/>
  <circle class="st20" cx="86.3" cy="80.7" r="2"/>
  <circle class="st20" cx="102.1" cy="75.3" r="2"/>
  <circle class="st20" cx="100.1" cy="86.7" r="2"/>
  <circle class="st20" cx="119.6" cy="69" r="2"/>
  <circle class="st20" cx="127.4" cy="82.7" r="2"/>
  <circle class="st20" cx="88.3" cy="69.9" r="2"/>
  <circle class="st20" cx="142.3" cy="45.2" r="2"/>
  <circle class="st20" cx="140.3" cy="55.9" r="2"/>
  <circle class="st20" cx="139.2" cy="64.7" r="2"/>
  <circle class="st20" cx="139.2" cy="70.4" r="2"/>
  <circle class="st20" cx="116.8" cy="84.7" r="2"/>
  <circle class="st20" cx="108.4" cy="94.9" r="2"/>
  <circle class="st20" cx="8.7" cy="50" r="2"/>
  <circle class="st20" cx="17.1" cy="62.2" r="2"/>
  <circle class="st20" cx="32.9" cy="56.8" r="2"/>
  <circle class="st20" cx="30.9" cy="68.2" r="2"/>
  <circle class="st20" cx="50.4" cy="50.5" r="2"/>
  <circle class="st20" cx="58.2" cy="64.2" r="2"/>
  <circle class="st20" cx="19.1" cy="51.4" r="2"/>
  <circle class="st20" cx="73" cy="26.7" r="2"/>
  <circle class="st20" cx="71" cy="37.4" r="2"/>
  <circle class="st20" cx="70" cy="46.2" r="2"/>
  <circle class="st20" cx="70" cy="51.9" r="2"/>
  <circle class="st20" cx="47.5" cy="66.2" r="2"/>
  <circle class="st20" cx="39.2" cy="76.4" r="2"/>
</svg>
