<svg xmlns="http://www.w3.org/2000/svg" xmlns:xlink="http://www.w3.org/1999/xlink" version="1.1" id="Layer_2" x="0" y="0" viewBox="-733.7 187.5 220.1 201" xml:space="preserve" enable-background="new -733.7 187.5 220.1 201">
  <style type="text/css">
    
								    
									.st9{fill:#0D8943;}

								  
  </style>
  <path class="st9" d="M-536.3 385.3l-187.5-174.3c-4.8-4.5-5.1-12.1-0.6-17l2.6-2.8c4.5-4.8 12.1-5.1 17-0.6L-517.4 365c4.8 4.5 5.1 12.1 0.6 17l-2.6 2.8C-523.8 389.5-531.4 389.8-536.3 385.3z"/>
  <path class="st9" d="M-710.9 385.3l187.5-174.3c4.8-4.5 5.1-12.1 0.6-17l-2.6-2.8c-4.5-4.8-12.1-5.1-17-0.6L-729.8 365c-4.8 4.5-5.1 12.1-0.6 17l2.6 2.8C-723.4 389.5-715.8 389.8-710.9 385.3z"/>
</svg>
